<svg width="400" height="278" viewBox="0 0 400 278" fill="none" xmlns="http://www.w3.org/2000/svg">
<path fill-rule="evenodd" clip-rule="evenodd" d="M317.423 19.1484L268.178 33.9472L300.975 119.72C320.739 114.879 341.605 117.751 359.326 127.753C377.046 137.755 390.289 154.134 396.359 173.556C402.428 192.978 400.868 213.983 391.995 232.295C383.123 250.607 367.606 264.85 348.602 272.124C329.598 279.398 308.537 279.156 289.705 271.448C270.873 263.74 255.686 249.145 247.236 230.634C238.787 212.123 237.709 191.088 244.222 171.81C250.736 152.533 264.351 136.462 282.296 126.869L265.818 83.773L209.003 201.783C208.184 203.478 206.903 204.908 205.307 205.908C203.711 206.907 201.866 207.436 199.983 207.433H159.367C156.8 227.604 146.649 246.041 130.977 258.996C115.305 271.952 95.2874 278.454 74.9935 277.181C54.6995 275.907 35.6519 266.954 21.722 252.141C7.79209 237.329 0.025228 217.767 2.22067e-05 197.433C-0.0151383 177.075 7.73276 157.476 21.665 142.631C35.5972 127.787 54.6654 118.812 74.9841 117.538C95.3029 116.263 115.343 122.783 131.022 135.77C146.7 148.757 156.837 167.233 159.367 187.434H184.365L135.569 50.8058C135.184 49.7274 134.988 48.5909 134.989 47.446H119.99C117.338 47.446 114.795 46.3926 112.92 44.5173C111.044 42.6421 109.991 40.0988 109.991 37.4469C109.991 34.7949 111.044 32.2516 112.92 30.3764C114.795 28.5012 117.338 27.4477 119.99 27.4477H164.986C167.638 27.4477 170.182 28.5012 172.057 30.3764C173.932 32.2516 174.985 34.7949 174.985 37.4469C174.985 40.0988 173.932 42.6421 172.057 44.5173C170.182 46.3926 167.638 47.446 164.986 47.446H155.607L174.025 99.0117L255.289 56.2453L245.639 31.0174C245.148 29.7327 244.928 28.3605 244.991 26.9866C245.054 25.6126 245.4 24.2665 246.007 23.0324C246.615 21.7984 247.47 20.7028 248.52 19.8143C249.57 18.9257 250.791 18.2633 252.109 17.8685L311.674 0L317.423 19.1484V19.1484ZM180.815 118.04L200.533 173.236L242.83 85.4029L180.815 118.04V118.04ZM310.634 201.003L289.506 145.738C276.55 153.382 266.938 165.614 262.575 180.011C258.212 194.407 259.417 209.917 265.951 223.467C272.484 237.018 283.87 247.619 297.851 253.17C311.832 258.722 327.389 258.818 341.438 253.441C355.487 248.063 367.003 237.604 373.705 224.136C380.406 210.668 381.803 195.174 377.62 180.725C373.436 166.275 363.977 153.924 351.116 146.12C338.256 138.316 322.933 135.628 308.184 138.588L329.313 193.864C330.216 196.331 330.113 199.055 329.024 201.447C327.935 203.838 325.948 205.705 323.494 206.643C321.039 207.581 318.314 207.516 315.907 206.46C313.501 205.405 311.606 203.444 310.634 201.003V201.003ZM139.158 187.434H79.9933C77.3414 187.434 74.7981 188.488 72.9229 190.363C71.0477 192.238 69.9942 194.782 69.9942 197.433C69.9942 200.085 71.0477 202.629 72.9229 204.504C74.7981 206.379 77.3414 207.433 79.9933 207.433H139.158C136.611 222.232 128.608 235.539 116.729 244.726C104.851 253.913 89.9591 258.313 74.9946 257.058C60.0302 255.802 46.0802 248.982 35.8986 237.943C25.7169 226.905 20.0436 212.45 19.9984 197.433C19.9846 182.381 25.6298 167.873 35.8138 156.788C45.9979 145.704 59.9766 138.853 74.9765 137.594C89.9765 136.335 104.902 140.761 116.79 149.993C128.679 159.226 136.663 172.59 139.158 187.434V187.434Z" fill="#232222"/>
</svg>
