<svg width="50" height="35" viewBox="0 0 50 35" fill="none" xmlns="http://www.w3.org/2000/svg">
<path fill-rule="evenodd" clip-rule="evenodd" d="M39.6779 2.39355L33.5222 4.24339L37.6219 14.965C40.0924 14.3598 42.7006 14.7189 44.9157 15.9692C47.1308 17.2194 48.7861 19.2667 49.5448 21.6945C50.3035 24.1223 50.1085 26.7479 48.9994 29.0369C47.8904 31.3259 45.9507 33.1063 43.5752 34.0155C41.1998 34.9247 38.5671 34.8945 36.2131 33.931C33.8591 32.9675 31.9608 31.1432 30.9046 28.8293C29.8483 26.5154 29.7136 23.886 30.5278 21.4763C31.342 19.0666 33.0439 17.0577 35.2871 15.8587L33.2272 10.4716L26.1253 25.2229C26.0229 25.4348 25.8628 25.6135 25.6634 25.7384C25.4639 25.8634 25.2333 25.9295 24.9979 25.9291H19.9208C19.6 28.4505 18.3311 30.7551 16.3721 32.3746C14.4131 33.994 11.9109 34.8067 9.37418 34.6476C6.83744 34.4884 4.45649 33.3693 2.71525 31.5177C0.974012 29.6661 0.0031535 27.2209 2.77584e-06 24.6792C-0.00189229 22.1343 0.966595 19.6845 2.70812 17.8289C4.44965 15.9733 6.83317 14.8516 9.37302 14.6922C11.9129 14.5328 14.4179 15.3479 16.3777 16.9713C18.3375 18.5946 19.6046 20.9042 19.9208 23.4293H23.0456L16.9461 6.35072C16.898 6.21593 16.8735 6.07386 16.8736 5.93075H14.9987C14.6673 5.93075 14.3493 5.79907 14.1149 5.56467C13.8805 5.33027 13.7489 5.01235 13.7489 4.68086C13.7489 4.34937 13.8805 4.03145 14.1149 3.79705C14.3493 3.56265 14.6673 3.43096 14.9987 3.43096H20.6233C20.9548 3.43096 21.2727 3.56265 21.5071 3.79705C21.7415 4.03145 21.8732 4.34937 21.8732 4.68086C21.8732 5.01235 21.7415 5.33027 21.5071 5.56467C21.2727 5.79907 20.9548 5.93075 20.6233 5.93075H19.4509L21.7532 12.3765L31.9111 7.03066L30.7049 3.87718C30.6435 3.71659 30.6159 3.54506 30.6239 3.37332C30.6318 3.20158 30.675 3.03332 30.7509 2.87906C30.8268 2.72479 30.9337 2.58785 31.065 2.47678C31.1962 2.36572 31.3489 2.28292 31.5136 2.23356L38.9592 0L39.6779 2.39355V2.39355ZM22.6019 14.755L25.0667 21.6544L30.3537 10.6754L22.6019 14.755V14.755ZM38.8293 25.1254L36.1882 18.2172C34.5687 19.1727 33.3672 20.7018 32.8219 22.5013C32.2765 24.3009 32.4271 26.2397 33.2438 27.9334C34.0605 29.6272 35.4837 30.9523 37.2314 31.6463C38.979 32.3402 40.9236 32.3523 42.6797 31.6801C44.4359 31.0079 45.8754 29.7005 46.7131 28.017C47.5508 26.3335 47.7254 24.3968 47.2025 22.5906C46.6795 20.7844 45.4971 19.2406 43.8895 18.265C42.282 17.2895 40.3666 16.9535 38.523 17.3236L41.1641 24.233C41.277 24.5414 41.2641 24.8819 41.128 25.1808C40.9918 25.4798 40.7435 25.7131 40.4367 25.8304C40.1299 25.9477 39.7892 25.9395 39.4884 25.8075C39.1876 25.6756 38.9508 25.4306 38.8293 25.1254V25.1254ZM17.3948 23.4293H9.99917C9.66767 23.4293 9.34976 23.561 9.11536 23.7954C8.88096 24.0298 8.74927 24.3477 8.74927 24.6792C8.74927 25.0107 8.88096 25.3286 9.11536 25.563C9.34976 25.7974 9.66767 25.9291 9.99917 25.9291H17.3948C17.0764 27.779 16.076 29.4424 14.5912 30.5908C13.1063 31.7392 11.2449 32.2892 9.37433 32.1322C7.50377 31.9752 5.76003 31.1227 4.48732 29.7429C3.21462 28.3631 2.50544 26.5563 2.49979 24.6792C2.49808 22.7976 3.20372 20.9841 4.47673 19.5986C5.74974 18.213 7.49708 17.3566 9.37207 17.1992C11.2471 17.0419 13.1127 17.5951 14.5988 18.7492C16.0849 19.9032 17.0829 21.5737 17.3948 23.4293V23.4293Z" fill="white"/>
</svg>
