<svg width="43" height="36" viewBox="0 0 43 36" fill="none" xmlns="http://www.w3.org/2000/svg">
<path d="M27.7708 7.02439C29.7417 7.02439 31.3542 5.4439 31.3542 3.5122C31.3542 1.58049 29.7417 0 27.7708 0C25.8 0 24.1875 1.58049 24.1875 3.5122C24.1875 5.4439 25.8 7.02439 27.7708 7.02439ZM8.95833 18.439C3.94167 18.439 0 22.3024 0 27.2195C0 32.1366 3.94167 36 8.95833 36C13.975 36 17.9167 32.1366 17.9167 27.2195C17.9167 22.3024 13.975 18.439 8.95833 18.439ZM8.95833 33.3659C5.55417 33.3659 2.6875 30.5561 2.6875 27.2195C2.6875 23.8829 5.55417 21.0732 8.95833 21.0732C12.3625 21.0732 15.2292 23.8829 15.2292 27.2195C15.2292 30.5561 12.3625 33.3659 8.95833 33.3659ZM19.35 15.8049L23.65 11.5902L25.0833 12.9951C27.4125 15.278 30.4583 16.6829 34.2208 16.6829V13.1707C31.5333 13.1707 29.3833 12.1171 27.7708 10.5366L24.3667 7.2C23.4708 6.49756 22.575 6.14634 21.5 6.14634C20.425 6.14634 19.5292 6.49756 18.9917 7.2L13.975 12.1171C13.2583 12.8195 12.9 13.6976 12.9 14.5756C12.9 15.6293 13.2583 16.5073 13.975 17.0341L19.7083 21.9512V30.7317H23.2917V19.8439L19.35 15.8049ZM34.0417 18.439C29.025 18.439 25.0833 22.3024 25.0833 27.2195C25.0833 32.1366 29.025 36 34.0417 36C39.0583 36 43 32.1366 43 27.2195C43 22.3024 39.0583 18.439 34.0417 18.439ZM34.0417 33.3659C30.6375 33.3659 27.7708 30.5561 27.7708 27.2195C27.7708 23.8829 30.6375 21.0732 34.0417 21.0732C37.4458 21.0732 40.3125 23.8829 40.3125 27.2195C40.3125 30.5561 37.4458 33.3659 34.0417 33.3659Z" fill="white"/>
</svg>
