<svg xmlns="http://www.w3.org/2000/svg" width="55" height="37" fill="none" viewBox="0 0 55 37">
  <path fill="#fff" d="M41.663 13.75 37.767 3.025A4.601 4.601 0 0 0 33.458 0H27.5v4.583h5.958l3.346 9.167H25.781l-.825-2.292H27.5V6.875H16.042v4.583h4.01l4.17 11.459h-1.535c-1.008-5.11-5.293-8.892-10.656-9.144C5.615 13.453 0 18.792 0 25.208c0 6.417 5.042 11.459 11.458 11.459 5.638 0 10.198-3.873 11.23-9.167h9.625c1.008 5.11 5.293 8.892 10.656 9.144C49.385 36.942 55 31.625 55 25.185c0-6.416-5.042-11.458-11.458-11.458h-1.88v.023ZM17.92 27.5c-.917 2.681-3.415 4.583-6.463 4.583-3.85 0-6.875-3.025-6.875-6.875s3.025-6.875 6.875-6.875c3.048 0 5.546 1.902 6.463 4.584h-6.463V27.5h6.463Zm14.392-4.583h-3.209l-1.673-4.584h6.944c-1.008 1.33-1.742 2.865-2.063 4.584Zm11.229 9.166c-3.85 0-6.875-3.025-6.875-6.875 0-2.13.94-3.964 2.406-5.225l2.2 6.05 4.308-1.558-2.223-6.119c.07 0 .138-.023.207-.023 3.85 0 6.875 3.025 6.875 6.875s-3.048 6.875-6.898 6.875Z"/>
</svg>
