<svg xmlns="http://www.w3.org/2000/svg" width="50" height="37" fill="none" viewBox="0 0 50 37">
  <path fill="#fff" d="M20.833 22.492h1.542l-4-17.257c-.438-1.861-2.125-3.19-4.063-3.19H6.25v4.09h8.063l2.958 12.779h-.021c-4.5 1.33-7.938 5.071-8.73 9.713H0v4.09h12.5V30.67c0-4.519 3.73-8.179 8.333-8.179Zm18.75-12.268h-1.708l-2.813-7.545C34.48 1.063 32.917 0 31.168 0h-8.25v4.09h8.25l2.291 6.134H21.667l.958 4.09h8.625c-.896 1.185-1.563 2.555-1.875 4.089h-5.813l.959 4.09h4.854c.917 4.56 4.813 7.933 9.688 8.158C44.895 30.917 50 26.173 50 20.427c0-5.705-4.583-10.203-10.417-10.203Zm0 16.358c-3.5 0-6.25-2.7-6.25-6.134 0-1.902.855-3.538 2.188-4.662l2 5.398 3.916-1.39-2.02-5.46c.062 0 .125-.02.187-.02 3.5 0 6.25 2.698 6.25 6.134 0 3.435-2.77 6.134-6.27 6.134Z"/>
  <path fill="#fff" d="M20.833 24.537c-3.458 0-6.25 2.74-6.25 6.134 0 3.395 2.792 6.135 6.25 6.135 3.459 0 6.25-2.74 6.25-6.135 0-3.394-2.791-6.134-6.25-6.134Zm0 8.18c-1.145 0-2.083-.921-2.083-2.046 0-1.124.938-2.044 2.083-2.044 1.146 0 2.084.92 2.084 2.044 0 1.125-.938 2.045-2.084 2.045Z"/>
</svg>
