<svg width="50" height="48" viewBox="0 0 50 48" fill="none" xmlns="http://www.w3.org/2000/svg">
<path fill-rule="evenodd" clip-rule="evenodd" d="M25 2.17708C12.3854 2.17708 2.17292 12.3375 2.17292 24.85C2.17292 34.0375 7.67917 41.9437 15.6042 45.5C16.4333 45.8729 17.2437 45.725 17.8771 45.25C18.2273 44.9772 18.5097 44.6271 18.702 44.227C18.8942 43.8269 18.9913 43.3876 18.9854 42.9437V41.7562L16.1583 41.3729C16.1374 41.3701 16.1166 41.3666 16.0958 41.3625C14.5375 41.0583 13.4854 40.5104 12.7146 39.7208C12.0667 39.0562 11.6708 38.2604 11.3354 37.5854L11.2188 37.35C10.9087 36.7034 10.5702 36.0708 10.2042 35.4542C9.92292 35.0083 9.70417 34.7792 9.4875 34.6354C8.9375 34.2708 8.40833 33.6521 8.40833 32.8792C8.40645 32.6567 8.45408 32.4366 8.54777 32.2348C8.64145 32.033 8.77885 31.8546 8.95 31.7125C9.27303 31.4567 9.67562 31.3225 10.0875 31.3333C10.55 31.3333 10.9854 31.475 11.3479 31.6375C11.7188 31.8042 12.0875 32.025 12.4312 32.2542C13.2687 32.8125 14.0937 33.4729 14.7917 34.2875C15.5187 35.1333 16.0333 35.6708 16.8083 35.7812C17.4458 35.8729 18.0958 35.875 18.6021 35.8521C18.6724 35.4513 18.7885 35.0598 18.9479 34.6854C18.3296 34.5411 17.7197 34.3631 17.1208 34.1521C15.7583 33.6687 14.2396 32.9167 13.2187 31.7771C12.0979 30.5229 11.4042 29.4042 11.0167 28.0958C10.6396 26.8208 10.5771 25.4396 10.5771 23.7396C10.5771 21.1354 11.7042 18.9417 12.55 17.7771C12.225 16.7575 11.9915 15.711 11.8521 14.65C11.7598 13.9809 11.7605 13.3022 11.8542 12.6333C11.9583 12.0229 12.2187 11.2729 12.9042 10.8208C13.5646 10.3812 14.3396 10.4 14.9437 10.5125C15.5708 10.6312 16.2229 10.8917 16.8229 11.1896C17.8 11.6729 18.7708 12.3187 19.4979 12.8667C20.7521 12.4979 22.9708 12.0229 24.9771 11.9792H25.0229C27.0312 12.0229 29.15 12.4979 30.3729 12.8646C31.1021 12.3188 32.0708 11.6708 33.0458 11.1896C33.6458 10.8917 34.2958 10.6312 34.925 10.5125C35.5292 10.4 36.3042 10.3812 36.9667 10.8187C37.65 11.2729 37.9125 12.0229 38.0146 12.6333C38.1208 13.2688 38.0958 13.9792 38.0146 14.65C37.8758 15.7109 37.643 16.7574 37.3187 17.7771C38.1646 18.9437 39.2917 21.1375 39.2917 23.7396C39.2917 25.4396 39.2292 26.8208 38.8542 28.0937C38.4646 29.4062 37.7708 30.5229 36.65 31.7771C35.6292 32.9167 34.1104 33.6687 32.7479 34.1521C32.0247 34.4063 31.2856 34.613 30.5354 34.7708C30.7917 35.5458 30.8833 36.1729 30.8833 36.5333V42.9708C30.8833 43.95 31.3396 44.7854 31.9875 45.2729C32.6167 45.75 33.425 45.8979 34.2542 45.5354C42.2542 42.0104 47.825 34.0833 47.825 24.8479C47.825 12.3375 37.6167 2.17708 25 2.17708ZM19.7417 37.9375C19.2 38.0146 19.7396 37.9375 19.7396 37.9375H19.7333L19.7167 37.9417L19.6562 37.95C19.3468 37.9864 19.0362 38.0121 18.725 38.0271C17.9835 38.0657 17.2401 38.0357 16.5042 37.9375C14.8562 37.7042 13.8542 36.5375 13.2063 35.7792L13.1437 35.7083C12.9319 35.4626 12.7043 35.2309 12.4625 35.0146C12.6771 35.4104 12.9 35.8521 13.1396 36.3271L13.1604 36.3688L13.2667 36.5854C13.6312 37.3104 13.8708 37.7937 14.2687 38.1979C14.6562 38.5937 15.2604 38.9771 16.4812 39.2188L20.2188 39.725C20.4798 39.7603 20.7191 39.8892 20.8923 40.0877C21.0655 40.2862 21.1608 40.5407 21.1604 40.8042V42.9437C21.1604 44.6104 20.3792 46.0958 19.1812 46.9958C18.5523 47.4764 17.8041 47.7762 17.0174 47.8628C16.2306 47.9495 15.4351 47.8197 14.7167 47.4875C6.04583 43.5979 0 34.9375 0 24.85C0 11.1167 11.2021 0 25 0C38.7979 0 50 11.1167 50 24.85C50 34.9896 43.8771 43.6729 35.1313 47.5292C34.4122 47.855 33.6181 47.9793 32.8339 47.8887C32.0497 47.798 31.3049 47.4959 30.6792 47.0146C30.0605 46.5383 29.5605 45.9251 29.2186 45.2231C28.8767 44.5212 28.702 43.7495 28.7083 42.9688V36.5312C28.7083 36.3854 28.6062 35.5437 28.0375 34.4125C27.959 34.2556 27.9194 34.0822 27.9222 33.9068C27.925 33.7314 27.9699 33.5592 28.0533 33.4049C28.1367 33.2506 28.2561 33.1187 28.4013 33.0202C28.5465 32.9218 28.7133 32.8599 28.8875 32.8396C29.9556 32.7057 31.0061 32.457 32.0208 32.0979C33.2583 31.6604 34.3687 31.0604 35.0292 30.3229C36.0104 29.2271 36.5 28.3854 36.7687 27.475C37.0479 26.5312 37.1187 25.4333 37.1187 23.7396C37.1187 21.3625 35.8687 19.3646 35.2937 18.7208C35.1632 18.5753 35.0742 18.3974 35.0361 18.2057C34.998 18.014 35.0121 17.8156 35.0771 17.6313C35.4474 16.5816 35.7092 15.4968 35.8583 14.3937C35.925 13.8208 35.9292 13.3417 35.8708 12.9958C35.8578 12.8694 35.8195 12.7468 35.7583 12.6354C35.6149 12.6106 35.4678 12.617 35.3271 12.6542C34.9729 12.7208 34.5208 12.8875 34.0083 13.1417C32.9875 13.6458 31.925 14.3917 31.2667 14.925C31.1215 15.0428 30.9483 15.121 30.7639 15.152C30.5796 15.1831 30.3903 15.1659 30.2146 15.1021C28.5278 14.5503 26.7732 14.2328 25 14.1583C22.9021 14.2083 20.4812 14.8042 19.6542 15.1021C19.4784 15.1659 19.2892 15.1831 19.1048 15.152C18.9205 15.121 18.7473 15.0428 18.6021 14.925C17.7507 14.2396 16.8321 13.6421 15.8604 13.1417C15.4432 12.9225 14.9991 12.7587 14.5396 12.6542C14.3995 12.6173 14.2532 12.6109 14.1104 12.6354C14.0492 12.7468 14.0109 12.8694 13.9979 12.9958C13.9396 13.3417 13.9437 13.8208 14.0104 14.3937C14.1606 15.4966 14.4223 16.5813 14.7917 17.6313C14.9229 18.0063 14.8417 18.4229 14.575 18.7208C14 19.3646 12.75 21.3625 12.75 23.7396C12.75 25.4312 12.8208 26.5312 13.1 27.475C13.3708 28.3854 13.8583 29.225 14.8375 30.3229C15.5 31.0604 16.6083 31.6604 17.8479 32.0979C18.862 32.4568 19.9118 32.7055 20.9792 32.8396C21.1988 32.8632 21.406 32.953 21.5732 33.0972C21.7405 33.2415 21.8599 33.4332 21.9155 33.6469C21.9712 33.8606 21.9604 34.0862 21.8847 34.2937C21.809 34.5012 21.6719 34.6807 21.4917 34.8083C21.1479 35.0542 20.9208 35.4958 20.7937 36.0063C20.7281 36.269 20.6891 36.5377 20.6771 36.8083V36.8479C20.6797 37.1121 20.5863 37.3682 20.4143 37.5686C20.2422 37.769 20.0032 37.9001 19.7417 37.9375Z" fill="#939393"/>
</svg>
