<svg width="20" height="20" viewBox="0 0 20 20" fill="none" xmlns="http://www.w3.org/2000/svg">
<path d="M16.25 7.5C16.2493 8.01589 16.1415 8.52603 15.9335 8.99812C15.7255 9.4702 15.4217 9.89396 15.0414 10.2426C15.8682 10.5444 16.5621 11.1281 17.0013 11.8909C17.4404 12.6537 17.5965 13.5469 17.4424 14.4134C17.2882 15.28 16.8334 16.0645 16.1581 16.629C15.4828 17.1935 14.6302 17.5019 13.75 17.5H6.25C5.25544 17.5 4.30161 17.1049 3.59835 16.4017C2.89509 15.6984 2.5 14.7446 2.5 13.75C2.5 12.7554 2.89509 11.8016 3.59835 11.0984C4.30161 10.3951 5.25544 10 6.25 10H9.72305C9.09927 9.31656 8.75238 8.4253 8.75 7.5H3.75C2.75544 7.5 1.80161 7.89509 1.09835 8.59835C0.395088 9.30161 0 10.2554 0 11.25L0 16.25C0 17.2446 0.395088 18.1984 1.09835 18.9017C1.80161 19.6049 2.75544 20 3.75 20H16.25C17.2446 20 18.1984 19.6049 18.9017 18.9017C19.6049 18.1984 20 17.2446 20 16.25V11.25C20 10.2554 19.6049 9.30161 18.9017 8.59835C18.1984 7.89509 17.2446 7.5 16.25 7.5ZM12.5 10C12.9945 10 13.4778 9.85338 13.8889 9.57867C14.3 9.30397 14.6205 8.91352 14.8097 8.45671C14.9989 7.99989 15.0484 7.49723 14.952 7.01227C14.8555 6.52732 14.6174 6.08186 14.2678 5.73223C13.9181 5.3826 13.4727 5.1445 12.9877 5.04804C12.5028 4.95157 12.0001 5.00108 11.5433 5.1903C11.0865 5.37952 10.696 5.69995 10.4213 6.11108C10.1466 6.5222 10 7.00555 10 7.5C10 8.16304 10.2634 8.79893 10.7322 9.26777C11.2011 9.73661 11.837 10 12.5 10ZM8.125 3.75C8.49584 3.75 8.85835 3.64003 9.16669 3.43401C9.47504 3.22798 9.71536 2.93514 9.85727 2.59253C9.99919 2.24992 10.0363 1.87292 9.96397 1.50921C9.89163 1.14549 9.71305 0.811399 9.45083 0.549176C9.1886 0.286952 8.85451 0.108376 8.49079 0.0360284C8.12708 -0.0363188 7.75008 0.000812411 7.40747 0.142727C7.06486 0.284641 6.77202 0.524964 6.56599 0.833307C6.35997 1.14165 6.25 1.50416 6.25 1.875C6.25 2.37228 6.44754 2.8492 6.79917 3.20083C7.15081 3.55246 7.62772 3.75 8.125 3.75ZM15 2.5C15.2472 2.5 15.4889 2.42669 15.6945 2.28934C15.9 2.15199 16.0602 1.95676 16.1548 1.72836C16.2495 1.49995 16.2742 1.24861 16.226 1.00614C16.1778 0.763662 16.0587 0.540933 15.8839 0.366117C15.7091 0.191302 15.4863 0.0722508 15.2439 0.0240192C15.0014 -0.0242123 14.7501 0.00054189 14.5216 0.0951514C14.2932 0.189761 14.098 0.349977 13.9607 0.555538C13.8233 0.761099 13.75 1.00277 13.75 1.25C13.75 1.58152 13.8817 1.89946 14.1161 2.13388C14.3505 2.3683 14.6685 2.5 15 2.5ZM6.25 11.25C5.58696 11.25 4.95107 11.5134 4.48223 11.9822C4.01339 12.4511 3.75 13.087 3.75 13.75C3.75 14.413 4.01339 15.0489 4.48223 15.5178C4.95107 15.9866 5.58696 16.25 6.25 16.25H13.75C14.413 16.25 15.0489 15.9866 15.5178 15.5178C15.9866 15.0489 16.25 14.413 16.25 13.75C16.25 13.087 15.9866 12.4511 15.5178 11.9822C15.0489 11.5134 14.413 11.25 13.75 11.25H6.25Z" fill="#313638"/>
</svg>
